<?xml version="1.0" encoding="utf-8"?>
<!-- Generator: Adobe Illustrator 17.1.0, SVG Export Plug-In . SVG Version: 6.00 Build 0)  -->
<!DOCTYPE svg PUBLIC "-//W3C//DTD SVG 1.1//EN" "http://www.w3.org/Graphics/SVG/1.1/DTD/svg11.dtd">
<svg version="1.1" xmlns="http://www.w3.org/2000/svg" xmlns:xlink="http://www.w3.org/1999/xlink" x="0px" y="0px"
	 viewBox="0 0 323 102" enable-background="new 0 0 323 102" xml:space="preserve">
<g id="Layer_1_xA0_Image_1_">
	<polyline fill="#57585B" points="160.1,101 155.4,88.1 170.3,86.7 	"/>
	<g>
<!--		<defs>
			<polygon id="SVGID_1_" points="172.9,101.7 323.1,92.7 323.1,-0.2 145.5,0.6 			"/>
		</defs>
		<clipPath id="SVGID_2_">
			<use xlink:href="#SVGID_1_"  overflow="visible"/>
		</clipPath>
-->
		<polygon clip-path="url(#SVGID_2_)" fill="#EC2A55" points="0.3,102 155.9,88.1 169,86.9 160.1,101 323,86.2 323.1,-0.2 
			148.9,12.1 145.6,0.3 -0.1,9.8 		"/>
	</g>
</g>
<g id="Layer_2">
	<polygon fill="#EC2A55" points="0.3,102.1 156,88.2 169.1,87 160.1,101.1 323,86.3 323.1,-0.1 148.9,12.2 145.6,0.3 -0.1,9.9 	"/>
	<polygon fill="none" points="146.2,0.3 0.3,0 0.3,102.1 172.9,102.1 	"/>
</g>
</svg>
