<?xml version="1.0" encoding="utf-8"?>
<!-- Generator: Adobe Illustrator 17.1.0, SVG Export Plug-In . SVG Version: 6.00 Build 0)  -->
<!DOCTYPE svg PUBLIC "-//W3C//DTD SVG 1.1//EN" "http://www.w3.org/Graphics/SVG/1.1/DTD/svg11.dtd">
<svg version="1.1" xmlns="http://www.w3.org/2000/svg" xmlns:xlink="http://www.w3.org/1999/xlink" x="0px" y="0px"
	 viewBox="0 0 640 1728" enable-background="new 0 0 640 1728" xml:space="preserve">
<g id="Layer_0_xA0_Image_1_">
	<image overflow="visible" width="640" height="394" id="Layer_0_xA0_Image" xlink:href="1A053F98CFD8F889.png" >
	</image>
</g>
<g id="Rectangle_1_1_" enable-background="new    ">
	<g id="Rectangle_1">
		<g>
			<rect y="164" fill-rule="evenodd" clip-rule="evenodd" fill="#FFFFFF" width="640" height="1564"/>
		</g>
	</g>
</g>
<g id="TOP_NEWS_1_">
	<g id="_x22_Kill_lists_x22__were_being_used_by_militia_to_track_down_and_murde_1_">
		<rect x="92" y="611" fill="none" width="458" height="377"/>
		<text id="_x22_Kill_lists_x22__were_being_used_by_militia_to_track_down_and_murde" transform="matrix(1 0 0 1 92 623.0059)"><tspan x="0" y="0" fill="#505050" font-family="'ProximaNova-Light'" font-size="18">&quot;Kill lists&quot; were being used by militia to track down and </tspan><tspan x="0" y="21.6" fill="#505050" font-family="'ProximaNova-Light'" font-size="18">murder people suspected of being gay in cities </tspan><tspan x="0" y="43.2" fill="#505050" font-family="'ProximaNova-Light'" font-size="18">throughout Iraq. Iraqi Refugee Assistance Project (IRAP) </tspan><tspan x="0" y="64.8" fill="#505050" font-family="'ProximaNova-Light'" font-size="18">was on the ground, identifying the most urgent cases, </tspan><tspan x="0" y="86.4" fill="#505050" font-family="'ProximaNova-Light'" font-size="18">but didn&apos;t have the necessary funds to evacuate the </tspan><tspan x="0" y="108" fill="#505050" font-family="'ProximaNova-Light'" font-size="18">refugees to safety.</tspan></text>
	</g>
	<g id="OPERATION_RELOCATION_x0D_">
		<rect x="92" y="205" fill="none" width="460" height="92"/>
		
			<text transform="matrix(1 0 0 1 167.6214 247.5995)" fill="#505050" font-family="'LeagueGothic'" font-size="60" letter-spacing="1">OPERATION </text>
	</g>
</g>
<g id="sign_and_share_1_">
	<g id="SUBMIT_BUTTON_xA0_Image_3_">
		
			<image overflow="visible" width="444" height="67" id="SUBMIT_BUTTON_xA0_Image_2_" xlink:href="1A053F98CFD8F88B.png"  transform="matrix(1 0 0 1 99 1586)">
		</image>
	</g>
	<g id="SIGN_AND_SHARE_1_">
		<rect x="94" y="1603" fill="none" width="428" height="42"/>
		
			<text transform="matrix(1 0 0 1 192.2033 1638.2793)" fill="#FFFFFF" font-family="'LeagueGothic-Italic'" font-size="48" letter-spacing="1">SIGN AND SHARE</text>
	</g>
</g>
<g id="sign_and_share_top_1_">
	<g id="SUBMIT_BUTTON_xA0_Image_1_">
		
			<image overflow="visible" width="444" height="67" id="SUBMIT_BUTTON_xA0_Image" xlink:href="1A053F98CFD8F88E.png"  transform="matrix(1 0 0 1 105 513)">
		</image>
	</g>
	<g id="SIGN_AND_SHARE">
		<rect x="100" y="530" fill="none" width="428" height="42"/>
		
			<text transform="matrix(1 0 0 1 198.2033 565.2793)" fill="#FFFFFF" font-family="'LeagueGothic-Italic'" font-size="48" letter-spacing="1">SIGN AND SHARE</text>
	</g>
</g>
<g id="logo_1_">
	<g id="header_x5D__xA0_Image_1_">
		
			<image overflow="visible" width="324" height="102" id="header_x5D__xA0_Image" xlink:href="1A053F98CFD8F88F.png"  transform="matrix(1 0 0 1 146 37)">
		</image>
	</g>
</g>
<g id="NOW_GO_ALL_OUT_1_">
	<g id="mid_button_xA0_Image_1_">
		
			<image overflow="visible" width="253" height="80" id="mid_button_xA0_Image" xlink:href="1A053F98CFD8F88A.png"  transform="matrix(1 0 0 1 314 767)">
		</image>
	</g>
	<g id="Now_x2C__Go">
		<rect x="66" y="790" fill="none" width="246" height="56"/>
		
			<text transform="matrix(1 0 0 1 70.8615 830.0195)" fill="#505050" font-family="'ProximaNova-Regular'" font-size="60" letter-spacing="1">Now, Go </text>
	</g>
</g>
<g id="EDITABLE_BOX_1_">
	<g id="Rectangle_2">
		<g>
			<rect x="74.6" y="890.6" fill-rule="evenodd" clip-rule="evenodd" fill="#FFFFFF" width="496.7" height="149.7"/>
		</g>
		<g>
			<path fill="#787878" d="M570.7,891.3v148.5H75.3V891.3H570.7 M572,890H74v151h498V890L572,890z"/>
		</g>
	</g>
	<g id="Help_spread_the_word_of_Operation_Relocation__x40_allout__x23_allout__x23_u_1_">
		<rect x="120" y="927" fill="none" width="448.4" height="194.9"/>
		
			<text id="Help_spread_the_word_of_Operation_Relocation__x40_allout__x23_allout__x23_u" transform="matrix(1 0 0 1 120 943.0078)"><tspan x="0" y="0" fill="#57585B" font-family="'ProximaNova-RegularIt'" font-size="24">Help spread the word of Operation </tspan><tspan x="0" y="28.8" fill="#57585B" font-family="'ProximaNova-RegularIt'" font-size="24">Relocation @allout #allout #uganda </tspan><tspan x="0" y="57.6" fill="#57585B" font-family="'ProximaNova-RegularIt'" font-size="24">#news #lgbtq</tspan></text>
	</g>
</g>
<g id="CAMPAIGN_header_1_">
	<g id="IMAGE__x2B__Layer_2_2_" enable-background="new    ">
		<defs>
			<rect id="SVGID_1_" x="88" y="282" enable-background="new    " width="466" height="208"/>
		</defs>
		<clipPath id="SVGID_2_">
			<use xlink:href="#SVGID_1_"  overflow="visible"/>
		</clipPath>
		<g clip-path="url(#SVGID_2_)">
			
				<image overflow="visible" width="470" height="210" id="IMAGE__x2B__Layer_2_xA0_Image" xlink:href="1A053F98CFD8F885.png"  transform="matrix(1 0 0 1 86 281)">
			</image>
		</g>
	</g>
</g>
<g id="social_media_1_">
	<g id="twitter_xA0_Image_1_">
		
			<image overflow="visible" width="89" height="83" id="twitter_xA0_Image" xlink:href="1A053F98CFD8F886.png"  transform="matrix(1 0 0 1 116 1189)">
		</image>
	</g>
	<g id="linkedin_xA0_Image_1_">
		
			<image overflow="visible" width="89" height="83" id="linkedin_xA0_Image" xlink:href="1A053F98CFD8F887.png"  transform="matrix(1 0 0 1 116 1379)">
		</image>
	</g>
	<g id="G_xA0_Image_1_">
		
			<image overflow="visible" width="89" height="83" id="G_xA0_Image" xlink:href="1A053F98CFD8F899.png"  transform="matrix(1 0 0 1 116 1284)">
		</image>
	</g>
	<g id="facebook_xA0_Image_1_">
		
			<image overflow="visible" width="89" height="83" id="facebook_xA0_Image" xlink:href="C2C231160A5BEBD2.png"  transform="matrix(1 0 0 1 116 1096)">
		</image>
	</g>
	<g id="tumblr_xA0_Image_1_">
		
			<image overflow="visible" width="89" height="83" id="tumblr_xA0_Image" xlink:href="C2C231160A5BEBD5.png"  transform="matrix(1 0 0 1 117 1477)">
		</image>
	</g>
</g>
<g id="buttons_1_">
	<g id="grey_sign_pink_xA0_Image_1_">
		
			<image overflow="visible" width="301" height="94" id="grey_sign_pink_xA0_Image" xlink:href="C2C231160A5BEBD6.png"  transform="matrix(1 0 0 1 227 1462)">
		</image>
	</g>
	<g id="REGISTER_xA0_Image_1_">
		
			<image overflow="visible" width="301" height="95" id="REGISTER_xA0_Image" xlink:href="C2C231160A5BEBD4.png"  transform="matrix(1 0 0 1 227 1364)">
		</image>
	</g>
	<g id="grey_sign_pink__copy_xA0_Image_1_">
		
			<image overflow="visible" width="301" height="94" id="grey_sign_pink__copy_xA0_Image" xlink:href="C2C231160A5BEBD3.png"  transform="matrix(1 0 0 1 227 1268)">
		</image>
	</g>
	<g id="grey_sign_pink__copy_2_xA0_Image_1_">
		
			<image overflow="visible" width="301" height="94" id="grey_sign_pink__copy_2_xA0_Image" xlink:href="C2C231160A5BEBCD.png"  transform="matrix(1 0 0 1 227 1173)">
		</image>
	</g>
	<g id="pink_sign_grey_share_xA0_Image_1_">
		
			<image overflow="visible" width="303" height="95" id="pink_sign_grey_share_xA0_Image" xlink:href="C2C231160A5BEBCE.png"  transform="matrix(1 0 0 1 227 1078)">
		</image>
	</g>
</g>
</svg>
