<?xml version="1.0" encoding="utf-8"?>
<!-- Generator: Adobe Illustrator 17.1.0, SVG Export Plug-In . SVG Version: 6.00 Build 0)  -->
<!DOCTYPE svg PUBLIC "-//W3C//DTD SVG 1.1//EN" "http://www.w3.org/Graphics/SVG/1.1/DTD/svg11.dtd">
<svg version="1.1" xmlns="http://www.w3.org/2000/svg" xmlns:xlink="http://www.w3.org/1999/xlink" x="0px" y="0px"
	 viewBox="0 0 679.7 213.8" enable-background="new 0 0 679.7 213.8" xml:space="preserve">
<g id="Layer_1">
	<polygon fill="#EC2955" points="679.7,181.5 679.7,0 278.2,36.8 330.9,212.5 	"/>
	<polygon points="352.1,181.6 330.9,212.5 322.4,184.3 	"/>
	<polygon fill="#58595B" points="0,30 0,213.8 352.1,181.6 299.4,5.9 	"/>
</g>
<g id="Layer_2">
	<g>
		<path d="M29.1,147.2l7-11.1c5.6,5.4,14.5,9.9,25.3,9.1c11.2-0.8,15.1-6.5,14.8-11.8c-1.1-16.3-45.7-3.1-47.6-31.6
			C27.7,88.9,38.2,78.2,55.3,77c12-0.8,22.2,2.5,29.8,9l-7,10.7c-6.6-5.8-15.1-8-23.2-7.4c-7.9,0.5-12.8,4.9-12.4,10.6
			c1,14.6,45.6,2.5,47.6,31.4c0.9,12.9-7.5,24.8-28.4,26.2C47.4,158.4,36.6,154,29.1,147.2z"/>
		<path d="M104.1,153.1l-5.4-77.7l13.6-0.9l5.4,77.7L104.1,153.1z"/>
		<path d="M128.3,112.4c-1.7-24.5,15.4-41.5,38-43c15.2-1,25.6,5.5,32.3,13.9L188,90.5c-4.6-5.5-12.3-9.6-20.9-9
			c-15.4,1.1-26,13.5-24.9,29.9c1.1,16.2,13.4,27.3,28.7,26.2c7.9-0.5,14.7-4.6,17.9-8.3l-0.8-12l-23.3,1.6l-0.8-12l36.8-2.5l2,29
			c-7,9-17.6,15.5-31,16.4C149.2,151.5,129.9,136.8,128.3,112.4z"/>
		<path d="M272.1,141.5l-44.4-52.8l3.8,55.6l-13.6,0.9l-5.4-77.7l14-1l43.5,51.1l-3.7-53.9l13.6-0.9l5.4,77.7L272.1,141.5z"/>
	</g>
	<g>
		<path fill="#FFFFFF" d="M344.1,146.8l6-9.8c5,4.6,12.8,8.5,22.3,7.7c9.8-0.8,13.2-5.9,12.8-10.5c-1.2-14.3-40-2.1-42.1-27.1
			c-0.9-11.3,8.1-20.8,23.1-22c10.5-0.9,19.4,1.9,26.2,7.5l-6,9.4c-5.8-5-13.3-6.8-20.4-6.2c-6.9,0.6-11.1,4.4-10.7,9.4
			c1.1,12.7,40,1.6,42,26.9c0.9,11.3-6.3,21.8-24.6,23.3C360.2,156.3,350.7,152.6,344.1,146.8z"/>
		<path fill="#FFFFFF" d="M457.1,147.1l-2.5-29.8l-35.4,2.9l2.5,29.8l-11.9,1l-5.6-68l11.9-1l2.3,27.7l35.4-2.9l-2.3-27.7l11.9-1
			l5.6,68L457.1,147.1z"/>
		<path fill="#FFFFFF" d="M531.2,141l-6.1-12.7l-31.2,2.6l-3.9,13.6l-13.6,1.1l21.1-70.2l14.9-1.2l32.3,65.8L531.2,141z M506,86.6
			l-9.6,33.4l24.5-2L506,86.6z"/>
		<path fill="#FFFFFF" d="M590.9,136.1l-17.1-24.1l-11.9,1l2.1,25.4l-11.9,1l-5.6-68l29.9-2.5c13.5-1.1,23,6.8,24.1,19.5
			c1,12-6.4,19.3-14.6,21.3l18.9,25.3L590.9,136.1z M588.2,89.2c-0.5-6.5-5.8-10.3-12.5-9.7l-16.4,1.4l1.8,21.6l16.4-1.4
			C584.2,100.5,588.7,95.8,588.2,89.2z"/>
		<path fill="#FFFFFF" d="M616.2,134l-5.6-68l46.6-3.8l0.9,10.5l-34.7,2.9l1.4,17.5l33.9-2.8l0.9,10.5l-33.9,2.8l1.6,19l34.7-2.9
			l0.9,10.5L616.2,134z"/>
	</g>
</g>
</svg>
